<svg width="269" height="54" viewBox="0 0 269 54" fill="none" xmlns="http://www.w3.org/2000/svg">
<g clip-path="url(#clip0_1730_34)">
<path d="M139.647 50.5448C140.858 50.5448 141.817 50.1409 142.373 49.2825C142.978 48.4241 143.281 47.1617 143.281 45.4955C143.281 43.8292 142.978 42.5668 142.373 41.7084C141.767 40.8501 140.858 40.4461 139.647 40.4461C138.435 40.4461 137.476 40.8501 136.87 41.7084C136.264 42.5668 135.962 43.8292 135.962 45.4955C135.962 47.1617 136.264 48.4241 136.87 49.2825C137.476 50.1409 138.385 50.5448 139.647 50.5448ZM139.647 37.1135C140.858 37.1135 141.969 37.3155 142.978 37.669C143.988 38.0729 144.846 38.6283 145.553 39.3352C146.26 40.0422 146.815 40.9005 147.219 41.9609C147.623 42.9708 147.774 44.1321 147.774 45.445C147.774 46.7578 147.572 47.8687 147.219 48.929C146.815 49.9389 146.26 50.8478 145.553 51.5547C144.846 52.2616 143.988 52.817 142.978 53.221C141.969 53.6249 140.858 53.7764 139.647 53.7764C138.435 53.7764 137.325 53.5744 136.315 53.221C135.305 52.817 134.447 52.2616 133.74 51.5547C133.034 50.8478 132.478 49.9389 132.075 48.929C131.671 47.9191 131.469 46.7578 131.469 45.445C131.469 44.1321 131.671 43.0213 132.075 41.9609C132.478 40.951 133.034 40.0422 133.74 39.3352C134.447 38.6283 135.305 38.0729 136.315 37.669C137.325 37.265 138.435 37.1135 139.647 37.1135Z" fill="black"/>
<path d="M116.627 5.30262C116.476 5.55502 116.325 5.70651 116.173 5.80751C116.022 5.90851 115.82 5.95901 115.567 5.95901C115.315 5.95901 115.113 5.85802 114.81 5.70652C114.558 5.55502 114.255 5.35311 113.901 5.20161C113.548 4.99961 113.144 4.84812 112.69 4.69672C112.236 4.54522 111.68 4.44421 111.075 4.44421C109.964 4.44421 109.156 4.69672 108.651 5.15112C108.096 5.65602 107.844 6.26202 107.844 7.06992C107.844 7.87772 107.995 7.97871 108.298 8.33221C108.601 8.68561 109.005 8.93812 109.459 9.19062C109.964 9.44312 110.519 9.64502 111.125 9.84702C111.731 10.049 112.387 10.2509 113.043 10.4529C113.7 10.6549 114.305 10.9579 114.962 11.2608C115.618 11.5638 116.123 11.9677 116.627 12.4222C117.132 12.8766 117.486 13.432 117.788 14.0885C118.091 14.7449 118.243 15.5528 118.243 16.5121C118.243 17.4715 118.041 18.5319 117.687 19.4408C117.334 20.3497 116.829 21.1576 116.123 21.814C115.466 22.4704 114.608 23.0258 113.599 23.4298C112.589 23.8337 111.478 23.9852 110.216 23.9852C108.954 23.9852 108.752 23.9347 108.046 23.7832C107.339 23.6317 106.632 23.4298 105.976 23.1773C105.32 22.9248 104.714 22.6219 104.108 22.2179C103.502 21.8645 102.998 21.4605 102.594 21.0061L103.957 18.7844C104.058 18.6329 104.209 18.4814 104.411 18.3804C104.613 18.2794 104.815 18.2289 105.017 18.2289C105.219 18.2289 105.572 18.3299 105.925 18.5319C106.228 18.7339 106.582 18.9863 106.986 19.2388C107.389 19.4913 107.844 19.7437 108.399 19.9457C108.954 20.1477 109.56 20.2487 110.317 20.2487C111.428 20.2487 112.286 19.9962 112.841 19.4913C113.447 18.9863 113.75 18.2289 113.75 17.2696C113.75 16.3102 113.599 16.2092 113.296 15.8557C112.993 15.5023 112.589 15.1993 112.135 14.9468C111.63 14.6944 111.125 14.4924 110.469 14.3409C109.812 14.1894 109.207 13.9875 108.55 13.7855C107.894 13.5835 107.288 13.3311 106.632 13.0281C106.026 12.7251 105.471 12.3717 104.966 11.8667C104.462 11.3618 104.108 10.8064 103.805 10.0995C103.502 9.39261 103.351 8.48372 103.351 7.47382C103.351 6.46392 103.502 5.80751 103.856 4.99961C104.209 4.19171 104.663 3.48481 105.32 2.87891C105.976 2.27301 106.784 1.76802 107.692 1.36412C108.651 1.01062 109.712 0.808716 110.923 0.808716C112.135 0.808716 113.548 1.01061 114.709 1.46511C115.87 1.86901 116.88 2.47492 117.687 3.23232L116.526 5.45412L116.627 5.30262Z" fill="black"/>
<path d="M128.238 20.6526C129.449 20.6526 130.409 20.2487 130.964 19.3903C131.57 18.5319 131.873 17.2695 131.873 15.6033C131.873 13.937 131.57 12.6746 130.964 11.8162C130.358 10.9578 129.449 10.5539 128.238 10.5539C127.026 10.5539 126.067 10.9578 125.461 11.8162C124.856 12.6746 124.553 13.937 124.553 15.6033C124.553 17.2695 124.856 18.5319 125.461 19.3903C126.067 20.2487 126.976 20.6526 128.238 20.6526ZM128.238 7.27179C129.449 7.27179 130.56 7.47379 131.57 7.82719C132.579 8.23119 133.437 8.78659 134.144 9.49349C134.851 10.2004 135.406 11.0588 135.81 12.1192C136.214 13.1291 136.365 14.2904 136.365 15.6033C136.365 16.9161 136.163 18.0269 135.81 19.0873C135.406 20.0972 134.851 21.0061 134.144 21.713C133.437 22.4199 132.579 22.9753 131.57 23.3793C130.56 23.7832 129.449 23.9347 128.238 23.9347C127.026 23.9347 125.916 23.7327 124.906 23.3793C123.897 22.9753 123.038 22.4199 122.332 21.713C121.625 21.0061 121.07 20.0972 120.666 19.0873C120.262 18.0774 120.06 16.9161 120.06 15.6033C120.06 14.2904 120.262 13.1796 120.666 12.1192C121.07 11.1093 121.625 10.2004 122.332 9.49349C123.038 8.78659 123.897 8.23119 124.906 7.82719C125.916 7.42329 127.026 7.27179 128.238 7.27179Z" fill="black"/>
<path d="M153.428 7.52429L147.067 23.6822H143.13L136.769 7.52429H140.353C140.656 7.52429 140.909 7.57479 141.161 7.72629C141.363 7.87769 141.514 8.07969 141.615 8.28169L144.341 16.2597C144.543 16.8151 144.695 17.32 144.796 17.8755C144.947 18.3804 145.048 18.9358 145.149 19.4408C145.25 18.9358 145.401 18.3804 145.553 17.8755C145.704 17.3705 145.856 16.8151 146.058 16.2597L148.885 8.28169C148.935 8.02919 149.086 7.87769 149.288 7.72629C149.49 7.57479 149.743 7.52429 150.046 7.52429H153.478H153.428Z" fill="black"/>
<path d="M164.988 13.6845C164.988 13.2301 164.937 12.8261 164.786 12.4222C164.685 12.0182 164.483 11.6648 164.231 11.3618C163.978 11.0589 163.625 10.8064 163.221 10.6044C162.817 10.4024 162.363 10.3519 161.808 10.3519C160.748 10.3519 159.94 10.6549 159.385 11.2103C158.779 11.8163 158.425 12.6242 158.224 13.735H164.988V13.6845ZM158.224 16.2597C158.375 17.7745 158.779 18.8854 159.536 19.5923C160.243 20.2992 161.202 20.6526 162.363 20.6526C163.524 20.6526 163.474 20.6021 163.928 20.4507C164.382 20.2992 164.736 20.1477 165.089 19.9962C165.442 19.8447 165.695 19.6428 165.998 19.5418C166.25 19.3903 166.502 19.3398 166.805 19.3398C167.108 19.3398 167.411 19.4408 167.613 19.6932L168.875 21.2586C168.421 21.814 167.916 22.2179 167.361 22.5714C166.805 22.9248 166.25 23.1773 165.644 23.3793C165.038 23.5813 164.433 23.7327 163.827 23.7832C163.221 23.8842 162.615 23.8842 162.06 23.8842C160.95 23.8842 159.889 23.6822 158.88 23.3288C157.921 22.9753 157.062 22.4199 156.305 21.6625C155.599 20.9556 154.993 20.0467 154.589 18.9358C154.185 17.8755 153.983 16.6131 153.983 15.1993C153.983 13.7855 154.185 13.0786 154.538 12.1192C154.892 11.1598 155.397 10.3014 156.103 9.59452C156.76 8.88762 157.618 8.28172 158.577 7.87782C159.536 7.47382 160.647 7.22131 161.858 7.22131C163.07 7.22131 163.827 7.37281 164.736 7.72631C165.594 8.02921 166.351 8.53421 167.007 9.14011C167.663 9.74601 168.118 10.5539 168.471 11.4628C168.825 12.3717 168.976 13.432 168.976 14.5934C168.976 15.7548 168.976 15.1993 168.976 15.4013C168.976 15.6033 168.875 15.7548 168.824 15.9062C168.774 16.0072 168.673 16.1082 168.522 16.1587C168.421 16.1587 168.219 16.2092 168.017 16.2092H158.325L158.224 16.2597Z" fill="black"/>
<path d="M175.639 10.2005C176.144 9.29162 176.75 8.53422 177.406 8.02922C178.063 7.47382 178.87 7.22131 179.779 7.22131C180.688 7.22131 181.091 7.37281 181.546 7.72631L181.243 10.9074C181.192 11.1093 181.091 11.2608 180.99 11.3618C180.889 11.4628 180.738 11.4628 180.536 11.4628C180.334 11.4628 180.132 11.4628 179.829 11.4123C179.526 11.4123 179.224 11.3618 178.971 11.3618C178.567 11.3618 178.214 11.4123 177.911 11.5133C177.608 11.6143 177.305 11.7658 177.103 12.0182C176.851 12.2202 176.649 12.4727 176.447 12.7756C176.245 13.0786 176.094 13.432 175.892 13.836V23.7327H171.551V7.57481H174.125C174.579 7.57481 174.882 7.67582 175.034 7.82732C175.185 7.97872 175.337 8.23122 175.387 8.63522L175.639 10.251V10.2005Z" fill="black"/>
<path d="M193.257 13.6845C193.257 13.2301 193.207 12.8261 193.055 12.4222C192.954 12.0182 192.752 11.6648 192.5 11.3618C192.248 11.0589 191.894 10.8064 191.49 10.6044C191.087 10.4024 190.632 10.3519 190.077 10.3519C189.017 10.3519 188.209 10.6549 187.654 11.2103C187.048 11.8163 186.695 12.6242 186.493 13.735H193.257V13.6845ZM186.442 16.2597C186.594 17.7745 186.998 18.8854 187.755 19.5923C188.462 20.2992 189.421 20.6526 190.582 20.6526C191.743 20.6526 191.692 20.6021 192.147 20.4507C192.601 20.2992 192.954 20.1477 193.308 19.9962C193.661 19.8447 193.913 19.6428 194.216 19.5418C194.469 19.3903 194.721 19.3398 195.024 19.3398C195.327 19.3398 195.63 19.4408 195.832 19.6932L197.094 21.2586C196.639 21.814 196.135 22.2179 195.579 22.5714C195.024 22.9248 194.469 23.1773 193.863 23.3793C193.257 23.5813 192.651 23.7327 192.046 23.7832C191.44 23.8842 190.834 23.8842 190.279 23.8842C189.168 23.8842 188.108 23.6822 187.099 23.3288C186.139 22.9753 185.281 22.4199 184.524 21.6625C183.817 20.9556 183.212 20.0467 182.808 18.9358C182.404 17.8755 182.202 16.6131 182.202 15.1993C182.202 13.7855 182.404 13.0786 182.757 12.1192C183.111 11.1598 183.615 10.3014 184.322 9.59452C184.978 8.88762 185.837 8.28172 186.796 7.87782C187.755 7.47382 188.865 7.22131 190.077 7.22131C191.288 7.22131 192.046 7.37281 192.954 7.72631C193.812 8.02921 194.57 8.53421 195.226 9.14011C195.882 9.74601 196.337 10.5539 196.69 11.4628C197.043 12.3717 197.195 13.432 197.195 14.5934C197.195 15.7548 197.195 15.1993 197.195 15.4013C197.195 15.6033 197.094 15.7548 197.043 15.9062C196.993 16.0072 196.892 16.1082 196.74 16.1587C196.639 16.1587 196.437 16.2092 196.236 16.2092H186.543L186.442 16.2597Z" fill="black"/>
<path d="M204.262 23.6822H199.921V7.52431H204.262V23.6822ZM204.767 2.92941C204.767 3.28281 204.716 3.63631 204.565 3.93921C204.413 4.24221 204.212 4.54521 203.959 4.74711C203.707 4.99961 203.404 5.15111 203.101 5.30261C202.748 5.45401 202.394 5.50451 202.041 5.50451C201.688 5.50451 201.334 5.45401 201.031 5.30261C200.728 5.15111 200.426 4.99961 200.173 4.74711C199.921 4.49471 199.719 4.24221 199.618 3.93921C199.466 3.63631 199.416 3.28281 199.416 2.92941C199.416 2.57591 199.466 2.22251 199.618 1.91951C199.769 1.61651 199.971 1.31361 200.173 1.06111C200.426 0.808611 200.678 0.606711 201.031 0.505711C201.334 0.354211 201.688 0.303711 202.041 0.303711C202.394 0.303711 202.748 0.354211 203.101 0.505711C203.454 0.657211 203.707 0.808611 203.959 1.06111C204.212 1.31361 204.413 1.56601 204.565 1.91951C204.716 2.22251 204.767 2.57591 204.767 2.92941Z" fill="black"/>
<path d="M214.005 14.9974C214.913 14.9974 215.57 14.7954 215.974 14.3409C216.377 13.8865 216.63 13.3311 216.63 12.6242C216.63 11.9172 216.428 11.3113 215.974 10.8569C215.57 10.4529 214.913 10.2005 214.005 10.2005C213.096 10.2005 212.44 10.4024 212.036 10.8569C211.632 11.2608 211.43 11.8667 211.43 12.6242C211.43 13.3816 211.632 13.8865 212.086 14.3409C212.49 14.7954 213.147 15.0478 214.055 15.0478M218.094 24.3387C218.094 24.0357 217.993 23.8337 217.841 23.6317C217.639 23.4298 217.437 23.3288 217.135 23.2278C216.832 23.1268 216.478 23.0258 216.074 23.0258C215.671 23.0258 215.216 22.9248 214.762 22.9248C214.308 22.9248 213.803 22.9248 213.348 22.8743C212.844 22.8743 212.389 22.8239 211.885 22.7734C211.531 22.9753 211.228 23.2278 210.976 23.5308C210.723 23.8337 210.623 24.1872 210.623 24.5406C210.623 24.8941 210.673 25.0456 210.824 25.2475C210.925 25.4495 211.127 25.6515 211.43 25.803C211.733 25.9545 212.086 26.1059 212.541 26.1564C212.995 26.2574 213.55 26.3079 214.257 26.3079C214.964 26.3079 215.57 26.3079 216.074 26.1564C216.579 26.0554 216.983 25.904 217.286 25.7525C217.589 25.601 217.791 25.3485 217.942 25.1466C218.094 24.8941 218.144 24.6416 218.144 24.3387M222.385 8.02922V9.59452C222.385 9.84702 222.334 10.049 222.183 10.2005C222.031 10.3519 221.829 10.4529 221.476 10.5539L220.163 10.8064C220.365 11.3113 220.416 11.8668 220.416 12.4727C220.416 13.0786 220.264 13.9875 219.911 14.6439C219.558 15.3003 219.154 15.8557 218.548 16.3102C217.993 16.7646 217.286 17.1181 216.529 17.3705C215.721 17.623 214.913 17.724 214.005 17.724C213.096 17.724 212.894 17.724 212.389 17.5725C211.935 17.825 211.733 18.128 211.733 18.4814C211.733 18.8349 211.885 18.9863 212.187 19.1378C212.49 19.2893 212.894 19.3903 213.348 19.4408C213.853 19.4913 214.409 19.5418 215.014 19.5418C215.62 19.5418 216.276 19.5418 216.933 19.6428C217.589 19.6932 218.195 19.7942 218.851 19.8952C219.457 20.0467 220.012 20.2487 220.517 20.5516C221.022 20.8546 221.375 21.2585 221.678 21.713C221.981 22.2179 222.132 22.8238 222.132 23.6317C222.132 24.4396 221.93 25.0456 221.577 25.7525C221.223 26.4089 220.719 27.0148 220.012 27.5702C219.356 28.1257 218.498 28.5296 217.538 28.8326C216.579 29.1355 215.418 29.3375 214.207 29.3375C212.995 29.3375 211.885 29.2365 210.976 28.9841C210.067 28.7316 209.31 28.4286 208.704 28.0247C208.098 27.6207 207.644 27.1663 207.341 26.6614C207.038 26.1564 206.887 25.601 206.887 25.0456C206.887 24.4901 207.089 23.7327 207.543 23.2278C207.998 22.7229 208.603 22.3189 209.361 22.016C208.957 21.7635 208.603 21.4605 208.401 21.1071C208.149 20.7536 208.048 20.2487 208.048 19.6428C208.048 19.0368 208.199 18.6329 208.553 18.1279C208.906 17.5725 209.461 17.1686 210.168 16.8151C209.361 16.3607 208.704 15.8052 208.199 15.0478C207.695 14.2904 207.493 13.4321 207.493 12.4727C207.493 11.5133 207.644 10.9579 207.998 10.3014C208.351 9.64501 208.805 9.08962 209.361 8.63522C209.966 8.18072 210.623 7.82731 211.43 7.57481C212.238 7.32231 213.096 7.22131 214.005 7.22131C215.368 7.22131 216.579 7.47382 217.639 8.02922H222.385Z" fill="black"/>
<path d="M228.644 9.39259C228.947 9.08959 229.3 8.78659 229.654 8.53419C230.007 8.28169 230.361 8.02919 230.764 7.87769C231.168 7.67579 231.572 7.52429 232.026 7.42329C232.481 7.32229 232.986 7.27179 233.49 7.27179C234.349 7.27179 235.156 7.42329 235.812 7.72629C236.469 8.02919 237.074 8.43319 237.529 8.98859C237.983 9.54399 238.336 10.2004 238.589 10.9579C238.841 11.7153 238.942 12.5232 238.942 13.432V23.6822H234.651V13.432C234.651 12.5232 234.449 11.8162 234.046 11.3618C233.642 10.8569 232.986 10.6044 232.178 10.6044C231.37 10.6044 231.017 10.7559 230.461 11.0083C229.906 11.2608 229.401 11.6143 228.947 12.1192V23.7327H224.606V7.57479H227.281C227.836 7.57479 228.19 7.82719 228.341 8.33219L228.594 9.44299L228.644 9.39259Z" fill="black"/>
<path d="M119.808 47.9696C120.06 47.9696 120.313 48.0706 120.464 48.2726L122.332 50.2418C121.423 51.4032 120.262 52.3121 118.899 52.918C117.536 53.5239 115.921 53.8269 114.053 53.8269C112.185 53.8269 110.822 53.5239 109.459 52.9685C108.096 52.3626 106.935 51.5547 105.976 50.5448C105.017 49.5349 104.31 48.2726 103.805 46.8588C103.3 45.4449 103.048 43.8796 103.048 42.2134C103.048 40.5471 103.149 39.9916 103.401 38.9818C103.654 37.9719 104.007 37.0125 104.462 36.1541C104.916 35.2957 105.522 34.5383 106.178 33.8314C106.834 33.1245 107.591 32.5691 108.45 32.0642C109.308 31.5592 110.216 31.2058 111.176 30.9533C112.185 30.7008 113.195 30.5493 114.356 30.5493C115.517 30.5493 115.971 30.5998 116.728 30.7513C117.486 30.9028 118.192 31.1048 118.798 31.3572C119.454 31.6097 120.06 31.9127 120.615 32.3166C121.171 32.6701 121.675 33.074 122.079 33.5285L120.514 35.6997C120.413 35.8512 120.313 35.9522 120.161 36.0531C120.01 36.1541 119.808 36.2046 119.555 36.2046C119.303 36.2046 119.05 36.1036 118.798 35.9522C118.546 35.7502 118.243 35.5987 117.839 35.3462C117.486 35.1443 116.981 34.9423 116.425 34.7403C115.87 34.5383 115.163 34.4878 114.305 34.4878C113.447 34.4878 112.488 34.6393 111.68 34.9928C110.873 35.3462 110.216 35.8512 109.611 36.5076C109.055 37.164 108.601 37.9719 108.298 38.9313C107.995 39.8907 107.844 40.951 107.844 42.1629C107.844 43.3747 107.995 44.4856 108.349 45.4449C108.702 46.4043 109.156 47.2122 109.762 47.8686C110.368 48.5251 111.024 49.03 111.832 49.3834C112.639 49.7369 113.447 49.8884 114.356 49.8884C115.264 49.8884 115.365 49.8884 115.82 49.7874C116.274 49.7369 116.678 49.6359 117.031 49.5349C117.385 49.4339 117.738 49.232 118.091 49.03C118.445 48.828 118.748 48.5755 119.101 48.2726C119.202 48.1716 119.353 48.1211 119.454 48.0201C119.555 47.9696 119.707 47.9191 119.858 47.9191" fill="black"/>
<path d="M164.635 37.366V53.5239H161.959C161.404 53.5239 161.05 53.2714 160.899 52.7665L160.596 51.6557C160.293 51.9586 159.94 52.2616 159.587 52.514C159.233 52.7665 158.88 53.019 158.476 53.1705C158.072 53.3724 157.668 53.5239 157.214 53.6249C156.76 53.7259 156.255 53.7764 155.75 53.7764C154.892 53.7764 154.084 53.6249 153.428 53.3219C152.721 53.019 152.166 52.615 151.712 52.0596C151.257 51.5042 150.904 50.8478 150.651 50.0904C150.399 49.3329 150.298 48.5251 150.298 47.6162V37.366H154.639V47.6162C154.639 48.5251 154.841 49.232 155.245 49.6864C155.649 50.1913 156.255 50.4438 157.113 50.4438C157.971 50.4438 158.274 50.2923 158.829 50.0399C159.385 49.7874 159.889 49.4339 160.344 48.929V37.3155H164.685L164.635 37.366Z" fill="black"/>
<path d="M178.214 41.6074C177.81 41.153 177.356 40.7995 176.901 40.5976C176.447 40.3956 175.942 40.2946 175.387 40.2946C174.832 40.2946 174.377 40.3956 173.974 40.5976C173.57 40.7995 173.166 41.1025 172.863 41.5064C172.56 41.9104 172.308 42.4658 172.156 43.1222C172.005 43.7787 171.904 44.5866 171.904 45.4954C171.904 46.4043 171.954 47.1617 172.106 47.7677C172.257 48.3736 172.459 48.8785 172.712 49.2825C172.964 49.6864 173.267 49.9389 173.62 50.1408C173.974 50.2923 174.377 50.3933 174.832 50.3933C175.589 50.3933 176.245 50.2418 176.75 49.9389C177.255 49.6359 177.76 49.232 178.214 48.6765V41.5569V41.6074ZM182.555 30.1454V53.5239H179.88C179.325 53.5239 178.971 53.2714 178.82 52.7665L178.466 51.3527C178.163 51.7061 177.81 52.0091 177.457 52.3121C177.103 52.615 176.7 52.8675 176.296 53.0695C175.892 53.2714 175.438 53.4229 174.933 53.5744C174.428 53.6754 173.923 53.7259 173.368 53.7259C172.51 53.7259 171.702 53.5239 170.995 53.1705C170.288 52.817 169.632 52.2616 169.127 51.5547C168.623 50.8478 168.168 49.9894 167.916 48.9795C167.613 47.9696 167.462 46.7578 167.462 45.4449C167.462 44.1321 167.613 43.1222 167.966 42.1124C168.32 41.1025 168.774 40.1936 169.38 39.4362C169.986 38.6788 170.743 38.0729 171.55 37.6689C172.409 37.265 173.368 37.0125 174.428 37.0125C175.488 37.0125 176.043 37.164 176.649 37.4165C177.255 37.6689 177.81 38.0224 178.264 38.4768V30.0949H182.606L182.555 30.1454Z" fill="black"/>
<path d="M206.483 35.1443C206.332 35.3967 206.18 35.5482 206.029 35.6492C205.877 35.7502 205.675 35.8007 205.423 35.8007C205.171 35.8007 204.969 35.6997 204.666 35.5482C204.413 35.3967 204.111 35.1948 203.757 35.0433C203.404 34.8413 203 34.6898 202.546 34.5383C202.091 34.3869 201.536 34.2859 200.93 34.2859C199.82 34.2859 199.012 34.5383 198.507 34.9928C197.952 35.4977 197.699 36.1036 197.699 36.9115C197.699 37.7194 197.851 37.8204 198.154 38.1739C198.457 38.5273 198.861 38.7798 199.315 39.0323C199.82 39.2847 200.375 39.4867 200.981 39.6887C201.586 39.8907 202.243 40.0926 202.899 40.2946C203.555 40.4966 204.161 40.7995 204.817 41.1025C205.423 41.4055 205.978 41.8094 206.483 42.2638C206.988 42.7183 207.341 43.2737 207.644 43.9301C207.947 44.5865 208.099 45.3944 208.099 46.3538C208.099 47.3132 207.897 48.3736 207.543 49.2825C207.19 50.1913 206.685 50.9992 205.978 51.6556C205.322 52.3121 204.464 52.8675 203.454 53.2714C202.445 53.6754 201.334 53.8269 200.072 53.8269C198.81 53.8269 198.608 53.7764 197.901 53.6249C197.195 53.4734 196.488 53.2714 195.832 53.019C195.175 52.7665 194.519 52.4635 193.964 52.0596C193.358 51.7061 192.853 51.3022 192.449 50.8477L193.812 48.626C193.913 48.4746 194.065 48.3231 194.267 48.2221C194.469 48.1211 194.671 48.0706 194.873 48.0706C195.074 48.0706 195.428 48.1716 195.781 48.3736C196.084 48.5755 196.437 48.828 196.841 49.0805C197.245 49.3329 197.699 49.5854 198.255 49.7874C198.81 49.9894 199.416 50.0903 200.173 50.0903C201.284 50.0903 202.142 49.8379 202.697 49.3329C203.303 48.828 203.606 48.0706 203.606 47.1112C203.606 46.1519 203.454 46.0509 203.151 45.6974C202.848 45.344 202.445 45.041 201.99 44.7885C201.486 44.5361 200.981 44.3341 200.324 44.1826C199.719 44.0311 199.062 43.8292 198.406 43.6272C197.75 43.4252 197.144 43.1727 196.488 42.8698C195.882 42.5668 195.327 42.2134 194.822 41.7084C194.317 41.2035 193.964 40.6481 193.661 39.9411C193.358 39.2342 193.207 38.3254 193.207 37.3155C193.207 36.3056 193.358 35.6492 193.711 34.8413C194.065 34.0334 194.519 33.3265 195.175 32.7206C195.832 32.1146 196.639 31.6097 197.548 31.2058C198.507 30.8523 199.567 30.6503 200.779 30.6503C201.99 30.6503 203.404 30.8523 204.565 31.3067C205.726 31.7107 206.736 32.3166 207.543 33.074L206.382 35.2957L206.483 35.1443Z" fill="black"/>
<path d="M128.743 30.1454H124.401V53.5239H128.743V30.1454Z" fill="black"/>
<path d="M215.772 53.8269C215.065 53.8269 214.409 53.7259 213.803 53.5239C213.248 53.3219 212.743 53.019 212.389 52.615C211.986 52.2111 211.733 51.7566 211.531 51.1507C211.329 50.5953 211.228 49.9389 211.228 49.232V40.4966H209.714C209.461 40.4966 209.31 40.4461 209.108 40.2946C208.957 40.1431 208.856 39.9412 208.856 39.6382V37.9214L211.43 37.467L212.288 33.276C212.389 32.8216 212.743 32.5691 213.248 32.5691H215.519V37.5175H219.709V40.5471H215.519V48.9795C215.519 49.4339 215.62 49.7874 215.822 50.0399C216.024 50.2923 216.327 50.4438 216.731 50.4438C217.135 50.4438 217.135 50.4438 217.286 50.3933C217.437 50.3933 217.538 50.2923 217.639 50.2418C217.74 50.1913 217.841 50.1408 217.942 50.0904C218.043 50.0904 218.144 50.0399 218.195 50.0399C218.245 50.0399 218.447 50.0399 218.498 50.1408C218.599 50.1913 218.649 50.2923 218.75 50.4438L220.062 52.514C219.457 52.9685 218.8 53.3219 218.043 53.5744C217.286 53.8269 216.529 53.9279 215.721 53.9279" fill="black"/>
<path d="M230.461 46.8083C229.401 46.8588 228.543 46.9597 227.836 47.0607C227.13 47.2122 226.574 47.3637 226.171 47.5657C225.767 47.7676 225.464 48.0201 225.312 48.2726C225.161 48.5251 225.06 48.828 225.06 49.131C225.06 49.7369 225.211 50.1913 225.565 50.4438C225.918 50.6963 226.423 50.8478 227.029 50.8478C227.635 50.8478 228.392 50.6963 228.897 50.4438C229.401 50.1913 229.957 49.7874 230.461 49.232V46.7073V46.8083ZM221.627 39.6382C222.586 38.7798 223.647 38.1234 224.757 37.7194C225.918 37.3155 227.13 37.063 228.493 37.063C229.856 37.063 230.31 37.2145 231.067 37.5175C231.824 37.8204 232.481 38.2749 232.986 38.8303C233.49 39.3857 233.894 40.0421 234.197 40.85C234.5 41.6074 234.601 42.4658 234.601 43.3747V53.5239H232.632C232.228 53.5239 231.925 53.4734 231.723 53.3724C231.522 53.2714 231.32 53.019 231.219 52.6655L230.865 51.6557C230.461 52.0091 230.058 52.3121 229.704 52.615C229.3 52.8675 228.947 53.12 228.543 53.3219C228.139 53.5239 227.685 53.6249 227.231 53.7259C226.776 53.8269 226.221 53.8774 225.666 53.8774C225.111 53.8774 224.303 53.7764 223.697 53.5744C223.091 53.3724 222.586 53.12 222.183 52.716C221.779 52.3626 221.425 51.8576 221.223 51.3022C220.971 50.7468 220.87 50.0904 220.87 49.3834C220.87 48.6765 221.022 48.1716 221.324 47.6162C221.627 47.0102 222.132 46.4548 222.889 46.0004C223.647 45.4954 224.606 45.0915 225.817 44.7885C227.029 44.4856 228.594 44.2836 230.411 44.2331V43.4252C230.411 42.4153 230.209 41.6579 229.755 41.2035C229.3 40.749 228.695 40.4966 227.887 40.4966C227.079 40.4966 226.776 40.5471 226.373 40.6986C225.969 40.85 225.615 41.0015 225.312 41.153C225.01 41.3045 224.757 41.456 224.454 41.6074C224.202 41.7589 223.899 41.8094 223.546 41.8094C223.192 41.8094 222.99 41.7589 222.788 41.6074C222.586 41.456 222.435 41.254 222.284 41.052L221.526 39.6887L221.627 39.6382Z" fill="black"/>
<path d="M249.796 41.0015C249.695 41.153 249.543 41.3045 249.442 41.4054C249.341 41.5064 249.139 41.5569 248.887 41.5569C248.635 41.5569 248.483 41.5064 248.281 41.355C248.079 41.254 247.877 41.1025 247.625 40.951C247.373 40.7995 247.07 40.6985 246.716 40.5471C246.363 40.4461 245.959 40.3451 245.454 40.3451C244.95 40.3451 244.243 40.4461 243.788 40.6985C243.334 40.951 242.93 41.254 242.627 41.7084C242.325 42.1629 242.072 42.6678 241.921 43.3242C241.769 43.9301 241.668 44.637 241.668 45.4449C241.668 47.1112 242.022 48.3736 242.678 49.2319C243.334 50.0903 244.243 50.5448 245.404 50.5448C246.565 50.5448 246.161 50.5448 246.413 50.4438C246.716 50.3933 246.969 50.2923 247.171 50.1913C247.373 50.0903 247.575 49.9894 247.726 49.8379C247.877 49.7369 248.029 49.5854 248.18 49.4844C248.332 49.3834 248.483 49.2824 248.584 49.2319C248.736 49.1815 248.887 49.131 249.038 49.131C249.392 49.131 249.644 49.2319 249.846 49.4844L251.108 51.0497C250.654 51.6051 250.149 52.0091 249.644 52.3625C249.139 52.716 248.584 52.9685 248.029 53.1704C247.474 53.3724 246.918 53.5239 246.312 53.5744C245.757 53.6754 245.151 53.6754 244.596 53.6754C243.587 53.6754 242.678 53.4734 241.769 53.1199C240.861 52.7665 240.103 52.2111 239.447 51.5042C238.791 50.7972 238.236 49.9389 237.832 48.8785C237.428 47.8686 237.226 46.6568 237.226 45.3439C237.226 44.0311 237.377 43.0717 237.731 42.0619C238.084 41.052 238.589 40.1431 239.245 39.4362C239.901 38.6788 240.76 38.1234 241.719 37.6689C242.728 37.265 243.839 37.0125 245.151 37.0125C246.464 37.0125 247.474 37.2145 248.382 37.6184C249.291 38.0224 250.149 38.5778 250.906 39.3352L249.796 40.85V41.0015Z" fill="black"/>
<path d="M257.57 30.1454V43.4252H258.276C258.529 43.4252 258.781 43.4252 258.933 43.3242C259.084 43.2232 259.236 43.1222 259.387 42.8698L262.971 38.1234C263.173 37.8709 263.324 37.7194 263.577 37.568C263.779 37.467 264.082 37.366 264.435 37.366H268.373L263.728 43.2737C263.375 43.7787 262.921 44.1321 262.466 44.4351C262.719 44.5866 262.921 44.7885 263.072 44.9905C263.274 45.1925 263.425 45.4449 263.577 45.7479L268.574 53.5239H264.687C264.334 53.5239 264.082 53.4734 263.829 53.3724C263.577 53.2714 263.375 53.0695 263.224 52.7665L259.589 46.8083C259.437 46.5558 259.286 46.4043 259.135 46.3033C258.983 46.2528 258.731 46.2023 258.428 46.2023H257.519V53.4734H253.178V30.0949H257.519L257.57 30.1454Z" fill="black"/>
<path d="M90.1758 1.21262C89.0652 0.657216 87.1469 0.556213 84.6229 0.556213H34.7479C34.0917 0.556213 33.4354 0.556215 32.7792 0.657215C31.82 0.758215 30.7599 1.06112 29.8513 1.56612C28.9426 2.07102 28.2359 2.62641 27.5292 3.28281H27.4282C27.4282 3.33331 3.65182 27.1158 3.65182 27.1158C-0.841023 31.7612 -0.639103 34.9423 3.29842 36.0027C4.40902 36.3056 5.72152 36.2046 7.38732 36.2046H57.7671C58.9787 36.2046 60.1397 36.0026 61.1998 35.5987C62.2599 35.1948 63.7239 34.2354 64.1277 33.8314C64.5316 33.4275 68.671 29.287 68.671 29.287H11.3753L32.1734 8.48372C32.4763 8.18072 32.7287 8.02922 32.8801 7.87772C33.1325 7.72632 33.183 7.67582 33.3849 7.62532C33.5869 7.62532 33.9907 7.52431 34.7479 7.52431H80.6854L74.7287 13.4825H84.5724L88.409 9.64502C91.2864 6.76692 93.4061 2.87892 90.2263 1.21262" fill="black"/>
<path d="M1.93513 52.918C3.0457 53.4734 4.964 53.5744 7.488 53.5744H57.363C58.0193 53.5744 58.6755 53.5744 59.3318 53.4734C60.2909 53.3724 61.351 53.0695 62.2597 52.5645C63.1683 52.0596 63.875 51.5042 64.5818 50.8477H64.6827C64.6827 50.7972 88.4592 27.0148 88.4592 27.0148C92.952 22.3694 92.75 19.1883 88.8125 18.1279C87.702 17.825 86.3895 17.9259 84.7236 17.9259H34.3438C33.1322 17.9259 31.9712 18.1279 30.9111 18.5319C29.851 18.9358 28.3871 19.8952 27.9832 20.2991C27.5794 20.7031 23.4399 24.8436 23.4399 24.8436H80.8871L60.089 45.6469C59.7861 45.9499 59.5337 46.1013 59.3822 46.2528C59.1298 46.4043 59.0794 46.4548 58.8774 46.5053C58.6755 46.5053 58.2717 46.6063 57.5145 46.6063H11.4255L17.3822 40.648H7.5385L3.702 44.4856C0.82455 47.3637 -1.29564 51.2517 1.88465 52.918" fill="black"/>
</g>
<defs>
<clipPath id="clip0_1730_34">
<rect width="269" height="54" fill="white"/>
</clipPath>
</defs>
</svg>
